<?xml version="1.0" encoding="iso-8859-1"?>
<!-- Uploaded to: SVG Repo, www.svgrepo.com, Generator: SVG Repo Mixer Tools -->
<svg fill="#000000" height="800px" width="800px" version="1.1" id="Layer_1" xmlns="http://www.w3.org/2000/svg" xmlns:xlink="http://www.w3.org/1999/xlink" 
	 viewBox="0 0 512 512" xml:space="preserve">
<g>
	<g>
		<g>
			<polygon points="320,12.499 320,127.998 435.499,127.998 			"/>
			<path d="M298.667,170.667c-11.797,0-21.333-9.536-21.333-21.333V0h-192C73.536,0,64,9.536,64,21.333v469.333
				C64,502.464,73.536,512,85.333,512h341.333c11.797,0,21.333-9.536,21.333-21.333v-320H298.667z M192,85.333
				c11.776,0,21.333,9.557,21.333,21.333S203.776,128,192,128s-21.333-9.557-21.333-21.333S180.224,85.333,192,85.333z M192,149.333
				c23.573,0,42.667,25.003,42.667,42.667h-85.333C149.333,174.336,168.427,149.333,192,149.333z M149.333,256h85.333
				c11.797,0,21.333,9.536,21.333,21.333c0,11.797-9.536,21.333-21.333,21.333h-85.333c-11.797,0-21.333-9.536-21.333-21.333
				C128,265.536,137.536,256,149.333,256z M383.232,368.341c-9.685,48.491-86.784,45.419-126.101,22.443
				c-37.013,25.408-103.595,20.16-126.208-17.344c-14.251-23.595,22.677-45.035,36.821-21.547c9.536,15.787,59.648,16.107,69.845,0
				c6.699-10.603,24.384-15.403,33.493-4.309c7.381,8.981,67.008,29.483,71.019,9.408
				C347.477,330.048,388.587,341.525,383.232,368.341z M362.667,298.667H320c-11.797,0-21.333-9.536-21.333-21.333
				c0-11.797,9.536-21.333,21.333-21.333h42.667c11.797,0,21.333,9.536,21.333,21.333C384,289.131,374.464,298.667,362.667,298.667z
				"/>
		</g>
	</g>
</g>
</svg>